<svg width="516" height="41" viewBox="0 0 516 41" fill="none" xmlns="http://www.w3.org/2000/svg">
<path d="M23.024 11.616C23.024 11.8293 22.96 12.0427 22.832 12.256C22.704 12.4267 22.5973 12.64 22.512 12.896C22.3413 13.3653 22.2133 13.6213 22.128 13.664C22.0853 13.7067 21.936 13.8773 21.68 14.176C21.552 14.3467 21.4667 14.496 21.424 14.624C21.3813 14.7093 21.3173 14.7947 21.232 14.88C21.0613 14.9653 20.8267 14.9227 20.528 14.752C20.1013 14.368 19.5893 13.9627 18.992 13.536C18.3947 13.1093 17.7547 12.7467 17.072 12.448C16.3893 12.1067 15.664 11.872 14.896 11.744C14.1707 11.616 13.424 11.68 12.656 11.936C11.5893 12.2773 10.352 12.8747 8.944 13.728C7.536 14.5813 6.34133 15.6267 5.36 16.864C4.16533 18.4 3.52533 20.064 3.44 21.856C3.35467 23.6053 3.696 25.2267 4.464 26.72C5.27467 28.2133 6.46933 29.4933 8.048 30.56C9.62667 31.584 11.504 32.1387 13.68 32.224C14.7893 32.0533 15.7493 31.6907 16.56 31.136C17.4133 30.5387 18.1387 29.8347 18.736 29.024C19.376 28.2133 19.9093 27.36 20.336 26.464C20.7627 25.5253 21.104 24.6507 21.36 23.84C19.184 24.3947 17.008 24.864 14.832 25.248C12.656 25.5893 10.48 25.4827 8.304 24.928C8.09067 24.8 8.02667 24.7573 8.112 24.8C8.19733 24.8 8.34667 24.608 8.56 24.224C8.64533 24.0533 8.70933 23.84 8.752 23.584C8.83733 23.2853 9.05067 23.0507 9.392 22.88C10.928 22.624 12.5067 22.304 14.128 21.92C15.7493 21.4933 17.4133 21.1307 19.12 20.832C20.8267 20.5333 22.5547 20.384 24.304 20.384C26.0533 20.384 27.824 20.6613 29.616 21.216C29.7867 21.3013 29.9787 21.3653 30.192 21.408C30.448 21.408 30.6827 21.4507 30.896 21.536C31.1093 21.6213 31.3013 21.7493 31.472 21.92C31.6427 22.048 31.728 22.24 31.728 22.496C31.728 22.6667 31.536 22.752 31.152 22.752C30.0427 22.752 28.7627 22.7947 27.312 22.88C25.904 22.9227 24.6453 23.0933 23.536 23.392C23.4933 24.416 23.4507 25.5467 23.408 26.784C23.408 28.0213 23.4507 29.3013 23.536 30.624C23.664 31.904 23.8773 33.184 24.176 34.464C24.5173 35.744 25.0293 36.9173 25.712 37.984C25.7973 38.0693 25.84 38.2827 25.84 38.624C25.84 38.9653 25.7973 39.2427 25.712 39.456C25.6267 39.584 25.6053 39.6907 25.648 39.776C25.6907 39.904 25.6693 40.0107 25.584 40.096C25.4987 40.2667 25.3493 40.3307 25.136 40.288C24.9227 40.288 24.752 40.2453 24.624 40.16C23.5147 39.0507 22.704 37.6853 22.192 36.064C21.7227 34.4427 21.4453 32.9067 21.36 31.456C18.6293 34.1867 15.8133 35.744 12.912 36.128C12.144 36.2133 11.5253 36.2133 11.056 36.128C10.6293 36.0853 10.0533 35.8933 9.328 35.552C9.02933 35.424 8.58133 35.3173 7.984 35.232C7.42933 35.1467 7.04533 34.9973 6.832 34.784C5.68 33.888 4.656 32.864 3.76 31.712C2.90667 30.56 2.20267 29.3227 1.648 28C1.136 26.6773 0.773333 25.312 0.56 23.904C0.389333 22.4533 0.432 20.9813 0.688 19.488C0.730667 17.568 1.2 15.8827 2.096 14.432C2.992 12.9387 4.10133 11.7013 5.424 10.72C6.78933 9.73867 8.24 9.01333 9.776 8.544C11.3547 8.032 12.8267 7.79733 14.192 7.84C15.1733 7.88267 16.1547 8.01067 17.136 8.224C18.16 8.39467 19.0987 8.71467 19.952 9.184C20.72 9.61067 21.3173 9.952 21.744 10.208C22.1707 10.4213 22.5973 10.8907 23.024 11.616ZM48.5775 16.288C48.8762 16.5867 49.1535 16.928 49.4095 17.312C49.6655 17.6533 49.8788 18.016 50.0495 18.4C50.3908 19.2107 50.5615 20.0213 50.5615 20.832C50.6042 21.6 50.3055 22.5387 49.6655 23.648C48.9402 24.8427 48.0015 25.8453 46.8495 26.656C45.7402 27.4667 44.5242 27.9787 43.2015 28.192C42.2628 28.3627 41.3242 28.3627 40.3855 28.192C39.4468 27.9787 38.5508 27.552 37.6975 26.912C37.4415 27.1253 37.2282 27.4453 37.0575 27.872C36.9295 28.256 36.8868 28.6187 36.9295 28.96C37.0148 29.5573 37.2282 30.2187 37.5695 30.944C37.9535 31.6267 38.3588 32.096 38.7855 32.352C39.5108 32.6507 40.5135 32.672 41.7935 32.416C43.1162 32.16 44.5028 31.776 45.9535 31.264C47.4468 30.7093 48.8975 30.112 50.3055 29.472C51.7562 28.7893 52.9935 28.2133 54.0175 27.744C54.0175 28 53.9535 28.1707 53.8255 28.256C53.7402 28.3413 53.6122 28.4907 53.4415 28.704C53.2282 28.9173 52.9935 29.1733 52.7375 29.472C52.4815 29.7707 52.1828 30.0267 51.8415 30.24C51.4148 30.496 51.0948 30.8373 50.8815 31.264C50.6682 31.648 50.2628 32.0107 49.6655 32.352C48.8548 32.7787 48.0228 33.2267 47.1695 33.696C46.3588 34.1227 45.5482 34.528 44.7375 34.912C43.9268 35.2533 43.0948 35.5307 42.2415 35.744C41.4308 35.9147 40.6202 35.9573 39.8095 35.872C39.2548 35.7867 38.7855 35.6373 38.4015 35.424C38.0602 35.2107 37.6335 34.8907 37.1215 34.464C36.8655 34.2507 36.5668 34.0373 36.2255 33.824C35.8842 33.6107 35.6282 33.3973 35.4575 33.184C34.7322 32.1173 34.2415 30.9867 33.9855 29.792C33.7295 28.5547 33.6655 27.3387 33.7935 26.144C33.9642 24.9067 34.2842 23.712 34.7535 22.56C35.2228 21.3653 35.8415 20.2773 36.6095 19.296C37.0362 18.7413 37.5482 18.1867 38.1455 17.632C38.7855 17.0347 39.4682 16.5227 40.1935 16.096C40.9615 15.6267 41.7508 15.264 42.5615 15.008C43.4148 14.752 44.2682 14.6453 45.1215 14.688C45.4628 14.7307 45.7615 14.8373 46.0175 15.008C46.3162 15.136 46.6362 15.2853 46.9775 15.456C47.1908 15.5413 47.4468 15.6693 47.7455 15.84C48.0868 15.968 48.3642 16.1173 48.5775 16.288ZM46.7215 20.064C46.6362 19.68 46.4015 19.3387 46.0175 19.04C45.6335 18.7413 45.2068 18.5067 44.7375 18.336C44.2682 18.1227 43.7988 17.9947 43.3295 17.952C42.8602 17.9093 42.5188 17.9307 42.3055 18.016C41.9642 18.144 41.5588 18.3787 41.0895 18.72C40.6628 19.0187 40.2362 19.3813 39.8095 19.808C39.4255 20.2347 39.0415 20.704 38.6575 21.216C38.3162 21.6853 38.0602 22.1333 37.8895 22.56C37.8042 22.688 37.7188 22.9013 37.6335 23.2C37.5908 23.456 37.6122 23.648 37.6975 23.776C38.2095 24.416 38.9775 24.736 40.0015 24.736C40.9828 24.736 42.0282 24.5013 43.1375 24.032C44.2895 23.5627 45.1002 23.072 45.5695 22.56C45.6122 22.4747 45.6975 22.3253 45.8255 22.112C45.9962 21.8987 46.1455 21.664 46.2735 21.408C46.4015 21.152 46.5082 20.896 46.5935 20.64C46.7215 20.384 46.7642 20.192 46.7215 20.064ZM75.1425 15.328C75.1425 15.712 75.2065 16.2027 75.3345 16.8C75.4625 17.3547 75.4198 17.8027 75.2065 18.144C75.1212 18.2293 75.0785 18.4 75.0785 18.656C75.0785 18.8693 75.0145 19.0187 74.8865 19.104L74.0545 18.592C73.3718 18.2507 72.6038 18.1013 71.7505 18.144C70.9398 18.1867 70.1078 18.3787 69.2545 18.72C68.6572 18.976 68.0598 19.3387 67.4625 19.808C66.9078 20.2347 66.3745 20.7253 65.8625 21.28C65.3505 21.8347 64.8812 22.4107 64.4545 23.008C64.0278 23.6053 63.6652 24.1813 63.3665 24.736C62.6838 25.9733 62.3425 27.4667 62.3425 29.216C62.3852 30.9653 63.0252 33.2267 64.2625 36C64.2625 36.2987 64.0492 36.6613 63.6225 37.088C63.5372 37.1733 63.4305 37.3013 63.3025 37.472C63.1745 37.6427 63.0678 37.7707 62.9825 37.856C62.6412 38.1547 62.4278 38.4107 62.3425 38.624C62.2998 38.8373 62.1718 38.9867 61.9585 39.072C61.6172 39.2 61.2972 38.9013 60.9985 38.176C60.2732 36.896 59.5692 35.3387 58.8865 33.504C58.2465 31.6267 57.6278 29.7067 57.0305 27.744C56.4758 25.7813 55.9638 23.904 55.4945 22.112C55.0678 20.2773 54.7265 18.7413 54.4705 17.504C54.3425 17.1627 54.3212 16.8427 54.4065 16.544C54.4918 16.2027 54.6198 15.9253 54.7905 15.712C54.9185 15.5413 55.0678 15.4987 55.2385 15.584C55.4518 15.6693 55.6225 15.712 55.7505 15.712C56.3052 15.712 56.6465 15.8187 56.7745 16.032C56.9025 16.2453 57.1158 16.5227 57.4145 16.864C58.0118 17.5467 58.4812 18.464 58.8225 19.616C59.1638 20.768 59.5905 22.1333 60.1025 23.712C60.7852 22.56 61.6598 21.4507 62.7265 20.384C63.8358 19.3173 65.0305 18.3573 66.3105 17.504C67.5905 16.608 68.9132 15.8827 70.2785 15.328C71.6438 14.7733 72.9665 14.432 74.2465 14.304C74.5025 14.2613 74.7158 14.3467 74.8865 14.56C75.0998 14.7307 75.1852 14.9867 75.1425 15.328ZM94.301 17.12C94.8557 18.4853 95.3677 19.9573 95.837 21.536C96.349 23.1147 96.6903 24.6933 96.861 26.272C97.0743 27.808 97.0743 29.3013 96.861 30.752C96.6903 32.2027 96.1997 33.4613 95.389 34.528C95.0477 34.9547 94.6423 35.1253 94.173 35.04C94.0023 34.9973 93.853 34.8907 93.725 34.72C93.597 34.5493 93.4263 34.4 93.213 34.272C93.0423 34.144 92.8503 34.0373 92.637 33.952C92.4663 33.8667 92.2957 33.696 92.125 33.44C91.485 33.6533 90.845 33.9733 90.205 34.4C89.6077 34.784 88.989 35.1893 88.349 35.616C87.709 36.0427 87.0477 36.448 86.365 36.832C85.6823 37.2587 84.9783 37.5573 84.253 37.728C83.485 37.9413 82.909 37.8987 82.525 37.6C82.1837 37.344 81.7997 37.0453 81.373 36.704C81.0743 36.448 80.8823 36.2773 80.797 36.192C80.7117 36.1493 80.6263 35.8933 80.541 35.424C80.413 34.4853 80.3917 33.4827 80.477 32.416C80.605 31.3067 80.861 30.1973 81.245 29.088C82.3117 25.8453 84.4877 23.6693 87.773 22.56C88.157 22.432 88.541 22.4107 88.925 22.496C89.3517 22.5387 89.757 22.6453 90.141 22.816C90.525 22.9867 90.8877 23.2 91.229 23.456C91.613 23.712 91.9543 23.968 92.253 24.224L93.277 25.056C93.4903 24.3307 93.469 23.5627 93.213 22.752C92.9997 21.8987 92.6583 21.1093 92.189 20.384C91.7197 19.616 91.1863 18.9333 90.589 18.336C89.9917 17.7387 89.4157 17.3333 88.861 17.12C86.685 17.12 84.7223 17.632 82.973 18.656C81.2663 19.6373 79.6023 20.9387 77.981 22.56C77.8957 22.6453 77.789 22.7093 77.661 22.752C77.5757 22.7947 77.4903 22.8373 77.405 22.88C77.277 22.9653 77.1277 22.9867 76.957 22.944C76.829 22.9013 76.8077 22.7733 76.893 22.56C77.149 21.1947 77.661 19.9787 78.429 18.912C79.197 17.8027 80.093 16.8427 81.117 16.032C82.141 15.2213 83.229 14.5387 84.381 13.984C85.533 13.4293 86.6637 13.024 87.773 12.768C87.9437 12.6827 88.093 12.64 88.221 12.64C88.3917 12.5973 88.5837 12.576 88.797 12.576C89.0957 12.576 89.373 12.6613 89.629 12.832C89.885 13.0027 90.1837 13.1947 90.525 13.408C90.9517 13.6213 91.3783 13.8773 91.805 14.176C92.2317 14.432 92.6157 14.752 92.957 15.136C93.2557 15.4773 93.5117 15.8187 93.725 16.16C93.9383 16.5013 94.1303 16.8213 94.301 17.12ZM92.125 28.512C91.869 27.9573 91.4637 27.4453 90.909 26.976C90.397 26.5067 89.7997 26.1653 89.117 25.952C88.4343 25.696 87.6877 25.632 86.877 25.76C86.109 25.888 85.3197 26.272 84.509 26.912C84.253 27.4667 83.997 28.0853 83.741 28.768C83.485 29.408 83.293 30.0693 83.165 30.752C83.037 31.392 82.973 32.0533 82.973 32.736C83.0157 33.376 83.165 33.9733 83.421 34.528C85.0423 33.9733 86.621 33.3333 88.157 32.608C89.693 31.8827 91.0157 31.2427 92.125 30.688C92.381 30.432 92.5303 30.2187 92.573 30.048C92.6157 29.8773 92.5943 29.728 92.509 29.6C92.4663 29.472 92.381 29.3227 92.253 29.152C92.1677 28.9813 92.125 28.768 92.125 28.512ZM121.268 15.328C121.268 15.712 121.332 16.2027 121.46 16.8C121.588 17.3547 121.545 17.8027 121.332 18.144C121.246 18.2293 121.204 18.4 121.204 18.656C121.204 18.8693 121.14 19.0187 121.012 19.104L120.18 18.592C119.497 18.2507 118.729 18.1013 117.876 18.144C117.065 18.1867 116.233 18.3787 115.38 18.72C114.782 18.976 114.185 19.3387 113.588 19.808C113.033 20.2347 112.5 20.7253 111.988 21.28C111.476 21.8347 111.006 22.4107 110.58 23.008C110.153 23.6053 109.79 24.1813 109.492 24.736C108.809 25.9733 108.468 27.4667 108.468 29.216C108.51 30.9653 109.15 33.2267 110.388 36C110.388 36.2987 110.174 36.6613 109.748 37.088C109.662 37.1733 109.556 37.3013 109.428 37.472C109.3 37.6427 109.193 37.7707 109.108 37.856C108.766 38.1547 108.553 38.4107 108.468 38.624C108.425 38.8373 108.297 38.9867 108.084 39.072C107.742 39.2 107.422 38.9013 107.124 38.176C106.398 36.896 105.694 35.3387 105.012 33.504C104.372 31.6267 103.753 29.7067 103.156 27.744C102.601 25.7813 102.089 23.904 101.62 22.112C101.193 20.2773 100.852 18.7413 100.596 17.504C100.468 17.1627 100.446 16.8427 100.532 16.544C100.617 16.2027 100.745 15.9253 100.916 15.712C101.044 15.5413 101.193 15.4987 101.364 15.584C101.577 15.6693 101.748 15.712 101.876 15.712C102.43 15.712 102.772 15.8187 102.9 16.032C103.028 16.2453 103.241 16.5227 103.54 16.864C104.137 17.5467 104.606 18.464 104.948 19.616C105.289 20.768 105.716 22.1333 106.228 23.712C106.91 22.56 107.785 21.4507 108.852 20.384C109.961 19.3173 111.156 18.3573 112.436 17.504C113.716 16.608 115.038 15.8827 116.404 15.328C117.769 14.7733 119.092 14.432 120.372 14.304C120.628 14.2613 120.841 14.3467 121.012 14.56C121.225 14.7307 121.31 14.9867 121.268 15.328ZM137.162 0.799999C137.162 3.53067 137.418 6.09067 137.93 8.48C138.442 10.8267 138.869 13.2373 139.21 15.712C139.551 18.2293 139.786 20.7253 139.914 23.2C140.042 25.632 140.213 27.8933 140.426 29.984C140.298 30.24 140.234 30.5387 140.234 30.88C140.277 31.2213 140.191 31.4987 139.978 31.712C139.338 32.3093 138.613 32.8853 137.802 33.44C136.991 33.9947 136.095 34.5067 135.114 34.976C134.773 35.1467 134.431 35.232 134.09 35.232C133.749 35.1893 133.407 35.2107 133.066 35.296C132.682 35.3813 132.277 35.488 131.85 35.616C131.466 35.744 131.061 35.7653 130.634 35.68C130.165 35.552 129.61 35.36 128.97 35.104C128.33 34.8053 127.69 34.464 127.05 34.08C126.41 33.696 125.813 33.2693 125.258 32.8C124.746 32.3307 124.362 31.8187 124.106 31.264C123.637 28.832 123.722 26.6347 124.362 24.672C125.045 22.7093 126.047 20.9387 127.37 19.36C127.541 19.1467 127.754 18.9973 128.01 18.912C128.266 18.784 128.501 18.6347 128.714 18.464C128.927 18.2933 129.162 18.1653 129.418 18.08C129.674 17.952 129.973 17.9093 130.314 17.952C131.167 18.0373 132.106 18.2507 133.13 18.592C134.154 18.8907 134.943 19.0827 135.498 19.168V18.208C135.498 17.0987 135.413 15.9893 135.242 14.88C135.114 13.728 134.986 12.576 134.858 11.424C134.73 10.272 134.623 9.09867 134.538 7.904C134.495 6.66667 134.559 5.408 134.73 4.128C134.773 3.78666 134.858 3.44533 134.986 3.104C135.114 2.76267 135.221 2.42133 135.306 2.08C135.391 1.86666 135.519 1.632 135.69 1.376C135.861 1.07733 136.053 0.885331 136.266 0.799999C136.479 0.714664 136.607 0.586664 136.65 0.415997C136.693 0.202663 136.799 0.117331 136.97 0.16C137.141 0.202666 137.205 0.266665 137.162 0.351997C137.162 0.437332 137.162 0.586666 137.162 0.799999ZM136.778 30.624C136.821 30.1547 136.821 29.4933 136.778 28.64C136.778 27.744 136.65 26.8267 136.394 25.888C136.138 24.9493 135.711 24.0533 135.114 23.2C134.559 22.3467 133.77 21.7067 132.746 21.28C132.277 21.3227 131.722 21.408 131.082 21.536C130.485 21.6213 129.887 21.792 129.29 22.048C128.693 22.304 128.138 22.6667 127.626 23.136C127.114 23.5627 126.709 24.1173 126.41 24.8C126.154 25.568 126.154 26.5707 126.41 27.808C126.666 29.0027 127.349 30.1547 128.458 31.264C129.098 31.648 129.781 31.8827 130.506 31.968C131.231 32.0107 131.957 31.9893 132.682 31.904C133.45 31.8187 134.175 31.648 134.858 31.392C135.583 31.136 136.223 30.88 136.778 30.624ZM193.585 38.176C193.329 37.92 193.158 37.6427 193.073 37.344C192.988 37.088 192.817 36.7253 192.561 36.256C192.262 35.7867 192.134 35.296 192.177 34.784C192.22 34.2293 192.156 33.6107 191.985 32.928C191.9 32.544 191.729 32.1387 191.473 31.712C191.217 31.2853 191.089 30.9013 191.089 30.56C191.004 27.8293 190.918 25.2053 190.833 22.688C190.748 20.128 190.598 17.312 190.385 14.24C189.745 14.88 189.062 15.6267 188.337 16.48C187.654 17.2907 186.993 18.144 186.353 19.04C185.713 19.936 185.116 20.832 184.561 21.728C184.006 22.5813 183.537 23.392 183.153 24.16C182.897 24.672 182.577 25.0987 182.193 25.44C181.852 25.7387 181.51 26.016 181.169 26.272C180.956 26.4427 180.785 26.6133 180.657 26.784C180.572 26.9547 180.422 26.9973 180.209 26.912C178.844 26.4853 177.628 25.696 176.561 24.544C175.494 23.392 174.47 22.2187 173.489 21.024C172.508 19.8293 171.505 18.7627 170.481 17.824C169.457 16.8427 168.326 16.3093 167.089 16.224C167.046 17.4613 167.025 18.8267 167.025 20.32C167.068 21.8133 167.11 23.3493 167.153 24.928C167.196 26.5067 167.238 28.0853 167.281 29.664C167.324 31.2 167.388 32.6293 167.473 33.952V37.088C167.004 36.5333 166.684 36.0213 166.513 35.552C166.342 35.04 166.129 34.464 165.873 33.824C165.702 33.4827 165.468 33.0773 165.169 32.608C164.87 32.096 164.678 31.648 164.593 31.264C164.166 29.6853 163.868 27.9573 163.697 26.08C163.526 24.16 163.441 22.2827 163.441 20.448C163.441 18.5707 163.484 16.8 163.569 15.136C163.654 13.472 163.74 12.0853 163.825 10.976C163.868 10.7627 163.932 10.592 164.017 10.464C164.145 10.2933 164.316 10.208 164.529 10.208C164.7 10.208 164.828 10.1653 164.913 10.08C164.998 9.99467 165.126 9.93067 165.297 9.888C165.596 9.888 165.788 10.0587 165.873 10.4C166.001 10.7413 166.236 11.2107 166.577 11.808C166.79 12.2773 166.918 12.576 166.961 12.704C167.004 12.832 167.068 13.088 167.153 13.472C168.348 13.5573 169.5 13.9413 170.609 14.624C171.761 15.3067 172.806 16.1387 173.745 17.12C174.726 18.1013 175.601 19.1253 176.369 20.192C177.18 21.2587 177.841 22.176 178.353 22.944C179.121 21.7067 179.953 20.4907 180.849 19.296C181.788 18.1013 182.748 16.9707 183.729 15.904C184.71 14.7947 185.67 13.792 186.609 12.896C187.59 11.9573 188.465 11.1253 189.233 10.4L190.065 9.888C190.065 9.71733 190.278 9.48266 190.705 9.184C190.79 9.09866 190.748 8.992 190.577 8.864C190.449 8.736 190.428 8.65067 190.513 8.608C190.684 8.56533 190.854 8.56533 191.025 8.608C191.196 8.608 191.324 8.672 191.409 8.8C192.134 9.90933 192.689 11.04 193.073 12.192C193.457 13.3013 193.756 14.4533 193.969 15.648C194.14 18.4213 194.246 21.1307 194.289 23.776C194.374 26.4213 194.353 29.0027 194.225 31.52C194.14 32.672 194.054 33.8027 193.969 34.912C193.884 36.0213 193.756 37.1093 193.585 38.176ZM207.685 17.504L206.597 18.592C206.938 18.5493 207.45 18.464 208.133 18.336C208.858 18.1653 209.562 18.08 210.245 18.08C210.757 18.1653 211.184 18.336 211.525 18.592C211.866 18.848 212.08 19.3387 212.165 20.064C212.336 21.088 212.592 22.1333 212.933 23.2C213.317 24.224 213.594 25.248 213.765 26.272C213.978 27.296 213.978 28.2773 213.765 29.216C213.552 30.112 212.976 30.9227 212.037 31.648C211.056 33.1413 209.968 34.4 208.773 35.424C207.621 36.4053 206.405 36.9813 205.125 37.152C204.272 37.28 203.333 37.152 202.309 36.768C201.285 36.4267 200.538 35.808 200.069 34.912C199.941 34.9973 199.834 35.0187 199.749 34.976C199.664 34.8907 199.578 34.8053 199.493 34.72C199.408 34.6347 199.322 34.6133 199.237 34.656C199.194 34.6987 199.152 34.6773 199.109 34.592C199.066 34.464 199.045 34.2933 199.045 34.08V33.952V33.824C199.088 32.3307 199.216 30.8373 199.429 29.344C199.685 27.808 200.048 26.336 200.517 24.928C201.029 23.4773 201.669 22.1333 202.437 20.896C203.248 19.616 204.272 18.4853 205.509 17.504C205.936 17.248 206.405 17.1627 206.917 17.248C207.002 17.248 207.109 17.248 207.237 17.248C207.365 17.248 207.514 17.3333 207.685 17.504ZM205.509 21.856C205.253 21.8133 205.104 21.728 205.061 21.6C205.018 21.472 205.018 21.3227 205.061 21.152C205.146 20.9387 205.232 20.704 205.317 20.448C205.445 20.192 205.509 19.936 205.509 19.68C204.613 20.4907 203.909 21.472 203.397 22.624C202.928 23.776 202.586 24.9707 202.373 26.208C202.16 27.4027 202.053 28.576 202.053 29.728C202.096 30.88 202.16 31.8827 202.245 32.736C202.33 33.4613 202.48 34.0587 202.693 34.528C202.906 34.9547 203.226 35.2107 203.653 35.296C204.122 35.424 204.741 35.296 205.509 34.912C206.618 34.3573 207.514 33.5893 208.197 32.608C208.88 31.6267 209.434 30.5813 209.861 29.472C210.032 28.8747 210.16 28.1707 210.245 27.36C210.373 26.5067 210.352 25.7173 210.181 24.992C209.968 24.0107 209.413 23.3067 208.517 22.88C207.664 22.4107 206.661 22.0693 205.509 21.856ZM222.472 27.296C223.197 26.5707 223.922 25.8027 224.648 24.992C225.416 24.1387 226.205 23.328 227.016 22.56C227.826 21.792 228.658 21.1093 229.512 20.512C230.365 19.872 231.261 19.36 232.2 18.976C232.413 18.8907 232.605 18.8693 232.776 18.912C232.989 18.9547 233.202 18.9333 233.416 18.848C233.757 18.848 234.056 18.848 234.312 18.848C234.568 18.848 234.802 18.9333 235.016 19.104C235.613 19.488 236.082 20.0427 236.424 20.768C236.808 21.4507 237.128 22.2187 237.384 23.072C237.554 23.5413 237.64 23.9893 237.64 24.416C237.682 24.8427 237.81 25.3333 238.024 25.888C238.28 26.6987 238.557 27.5307 238.856 28.384C239.197 29.1947 239.325 29.984 239.24 30.752C239.197 30.9653 239.133 31.1573 239.048 31.328C238.962 31.456 238.856 31.6267 238.728 31.84C238.642 32.0107 238.493 32.224 238.28 32.48C238.066 32.736 237.853 32.928 237.64 33.056C237.426 33.2267 237.277 33.376 237.192 33.504C237.149 33.5893 236.957 33.696 236.616 33.824C236.061 33.0133 235.634 32.1387 235.336 31.2C235.037 30.2613 234.781 29.28 234.568 28.256C234.354 27.232 234.162 26.1867 233.992 25.12C233.821 24.0533 233.608 22.9653 233.352 21.856C233.266 21.5573 232.989 21.3867 232.52 21.344C232.093 21.3013 231.581 21.4507 230.984 21.792C230.429 22.0907 229.832 22.5813 229.192 23.264C228.552 23.9467 227.976 24.8213 227.464 25.888C227.122 26.656 226.802 27.4667 226.504 28.32C226.205 29.1307 225.864 29.9627 225.48 30.816C225.138 31.6267 224.712 32.4373 224.2 33.248C223.73 34.016 223.154 34.72 222.472 35.36C222.258 35.5733 222.109 35.5947 222.024 35.424C221.938 35.2533 221.725 35.104 221.384 34.976C221.128 34.8907 220.978 34.8053 220.936 34.72C220.936 34.6347 220.872 34.3787 220.744 33.952C220.488 33.056 220.21 32.032 219.911 30.88C219.656 29.728 219.357 28.512 219.016 27.232C218.717 25.952 218.397 24.672 218.056 23.392C217.714 22.0693 217.373 20.832 217.032 19.68L216.648 18.528C216.733 18.3573 216.882 18.208 217.096 18.08C217.352 17.952 217.608 17.8453 217.864 17.76C218.12 17.6747 218.397 17.696 218.696 17.824C218.994 17.952 219.229 18.016 219.4 18.016C219.869 18.016 220.274 18.3147 220.616 18.912C221 19.5093 221.32 20.2773 221.576 21.216C221.832 22.112 222.024 23.1147 222.152 24.224C222.322 25.2907 222.429 26.3147 222.472 27.296ZM266.271 21.856C266.356 21.9413 266.42 21.984 266.463 21.984C266.506 21.984 266.527 22.0267 266.527 22.112C266.484 22.1973 266.378 22.304 266.207 22.432C266.079 22.5173 265.823 22.5813 265.439 22.624C265.311 22.6667 265.14 22.752 264.927 22.88C264.714 22.9653 264.543 23.0293 264.415 23.072C263.263 23.328 261.898 23.5627 260.319 23.776C258.783 23.9893 257.183 24.1813 255.519 24.352C255.434 25.8453 255.391 27.232 255.391 28.512C255.434 29.792 255.498 30.9013 255.583 31.84C255.668 32.5653 256.01 32.928 256.607 32.928C257.204 32.8853 257.823 32.7573 258.463 32.544C258.634 32.5013 259.082 32.3093 259.807 31.968C260.575 31.584 261.45 31.1573 262.431 30.688C263.455 30.176 264.522 29.6427 265.631 29.088C266.74 28.4907 267.743 27.9573 268.639 27.488C268.639 28.0853 268.319 28.6613 267.679 29.216C267.338 29.5147 266.954 29.792 266.527 30.048C266.143 30.304 265.738 30.5813 265.311 30.88C264.842 31.1787 264.522 31.4987 264.351 31.84C264.18 32.1813 263.796 32.544 263.199 32.928C262.09 33.6533 260.895 34.3147 259.615 34.912C258.335 35.5093 257.183 35.936 256.159 36.192C255.818 36.2773 255.455 36.32 255.071 36.32C254.73 36.32 254.388 36.384 254.047 36.512C253.535 36.7253 253.13 36.6827 252.831 36.384C252.575 36.0853 252.404 35.6587 252.319 35.104C252.148 33.5253 252.02 31.84 251.935 30.048C251.892 28.256 251.892 26.4427 251.935 24.608C250.655 24.6933 249.46 24.736 248.351 24.736C247.284 24.6933 246.41 24.608 245.727 24.48C245.087 24.3947 244.49 24.2667 243.935 24.096C243.423 23.8827 242.954 23.5627 242.527 23.136C242.143 23.136 242.015 22.9653 242.143 22.624C242.314 22.24 242.442 21.92 242.527 21.664C243.423 21.6213 244.724 21.5787 246.431 21.536C248.18 21.4507 250.058 21.3653 252.063 21.28C252.234 17.7387 252.532 14.4533 252.959 11.424C253.386 8.39467 253.898 6.13333 254.495 4.64C254.495 4.256 254.644 4 254.943 3.872C255.284 3.70133 255.626 3.50933 255.967 3.296C256.138 3.21067 256.308 3.104 256.479 2.976C256.692 2.80533 256.97 2.72 257.311 2.72C257.695 2.93333 257.972 3.12533 258.143 3.296C258.314 3.424 258.399 3.59467 258.399 3.808C258.399 4.02133 258.335 4.27733 258.207 4.576C258.079 4.87466 257.93 5.25867 257.759 5.728C257.674 5.856 257.546 6.38933 257.375 7.328C257.204 8.26667 257.012 9.46133 256.799 10.912C256.628 12.32 256.436 13.9413 256.223 15.776C256.01 17.568 255.839 19.3813 255.711 21.216C257.119 21.216 258.463 21.2373 259.743 21.28C261.023 21.28 262.154 21.3227 263.135 21.408L266.271 21.856ZM284.265 16.288C284.564 16.5867 284.841 16.928 285.097 17.312C285.353 17.6533 285.566 18.016 285.737 18.4C286.078 19.2107 286.249 20.0213 286.249 20.832C286.292 21.6 285.993 22.5387 285.353 23.648C284.628 24.8427 283.689 25.8453 282.537 26.656C281.428 27.4667 280.212 27.9787 278.889 28.192C277.95 28.3627 277.012 28.3627 276.073 28.192C275.134 27.9787 274.238 27.552 273.385 26.912C273.129 27.1253 272.916 27.4453 272.745 27.872C272.617 28.256 272.574 28.6187 272.617 28.96C272.702 29.5573 272.916 30.2187 273.257 30.944C273.641 31.6267 274.046 32.096 274.473 32.352C275.198 32.6507 276.201 32.672 277.481 32.416C278.804 32.16 280.19 31.776 281.641 31.264C283.134 30.7093 284.585 30.112 285.993 29.472C287.444 28.7893 288.681 28.2133 289.705 27.744C289.705 28 289.641 28.1707 289.513 28.256C289.428 28.3413 289.3 28.4907 289.129 28.704C288.916 28.9173 288.681 29.1733 288.425 29.472C288.169 29.7707 287.87 30.0267 287.529 30.24C287.102 30.496 286.782 30.8373 286.569 31.264C286.356 31.648 285.95 32.0107 285.353 32.352C284.542 32.7787 283.71 33.2267 282.857 33.696C282.046 34.1227 281.236 34.528 280.425 34.912C279.614 35.2533 278.782 35.5307 277.929 35.744C277.118 35.9147 276.308 35.9573 275.497 35.872C274.942 35.7867 274.473 35.6373 274.089 35.424C273.748 35.2107 273.321 34.8907 272.809 34.464C272.553 34.2507 272.254 34.0373 271.913 33.824C271.572 33.6107 271.316 33.3973 271.145 33.184C270.42 32.1173 269.929 30.9867 269.673 29.792C269.417 28.5547 269.353 27.3387 269.481 26.144C269.652 24.9067 269.972 23.712 270.441 22.56C270.91 21.3653 271.529 20.2773 272.297 19.296C272.724 18.7413 273.236 18.1867 273.833 17.632C274.473 17.0347 275.156 16.5227 275.881 16.096C276.649 15.6267 277.438 15.264 278.249 15.008C279.102 14.752 279.956 14.6453 280.809 14.688C281.15 14.7307 281.449 14.8373 281.705 15.008C282.004 15.136 282.324 15.2853 282.665 15.456C282.878 15.5413 283.134 15.6693 283.433 15.84C283.774 15.968 284.052 16.1173 284.265 16.288ZM282.409 20.064C282.324 19.68 282.089 19.3387 281.705 19.04C281.321 18.7413 280.894 18.5067 280.425 18.336C279.956 18.1227 279.486 17.9947 279.017 17.952C278.548 17.9093 278.206 17.9307 277.993 18.016C277.652 18.144 277.246 18.3787 276.777 18.72C276.35 19.0187 275.924 19.3813 275.497 19.808C275.113 20.2347 274.729 20.704 274.345 21.216C274.004 21.6853 273.748 22.1333 273.577 22.56C273.492 22.688 273.406 22.9013 273.321 23.2C273.278 23.456 273.3 23.648 273.385 23.776C273.897 24.416 274.665 24.736 275.689 24.736C276.67 24.736 277.716 24.5013 278.825 24.032C279.977 23.5627 280.788 23.072 281.257 22.56C281.3 22.4747 281.385 22.3253 281.513 22.112C281.684 21.8987 281.833 21.664 281.961 21.408C282.089 21.152 282.196 20.896 282.281 20.64C282.409 20.384 282.452 20.192 282.409 20.064ZM310.83 15.328C310.83 15.712 310.894 16.2027 311.022 16.8C311.15 17.3547 311.107 17.8027 310.894 18.144C310.809 18.2293 310.766 18.4 310.766 18.656C310.766 18.8693 310.702 19.0187 310.574 19.104L309.742 18.592C309.059 18.2507 308.291 18.1013 307.438 18.144C306.627 18.1867 305.795 18.3787 304.942 18.72C304.345 18.976 303.747 19.3387 303.15 19.808C302.595 20.2347 302.062 20.7253 301.55 21.28C301.038 21.8347 300.569 22.4107 300.142 23.008C299.715 23.6053 299.353 24.1813 299.054 24.736C298.371 25.9733 298.03 27.4667 298.03 29.216C298.073 30.9653 298.713 33.2267 299.95 36C299.95 36.2987 299.737 36.6613 299.31 37.088C299.225 37.1733 299.118 37.3013 298.99 37.472C298.862 37.6427 298.755 37.7707 298.67 37.856C298.329 38.1547 298.115 38.4107 298.03 38.624C297.987 38.8373 297.859 38.9867 297.646 39.072C297.305 39.2 296.985 38.9013 296.686 38.176C295.961 36.896 295.257 35.3387 294.574 33.504C293.934 31.6267 293.315 29.7067 292.718 27.744C292.163 25.7813 291.651 23.904 291.182 22.112C290.755 20.2773 290.414 18.7413 290.158 17.504C290.03 17.1627 290.009 16.8427 290.094 16.544C290.179 16.2027 290.307 15.9253 290.478 15.712C290.606 15.5413 290.755 15.4987 290.926 15.584C291.139 15.6693 291.31 15.712 291.438 15.712C291.993 15.712 292.334 15.8187 292.462 16.032C292.59 16.2453 292.803 16.5227 293.102 16.864C293.699 17.5467 294.169 18.464 294.51 19.616C294.851 20.768 295.278 22.1333 295.79 23.712C296.473 22.56 297.347 21.4507 298.414 20.384C299.523 19.3173 300.718 18.3573 301.998 17.504C303.278 16.608 304.601 15.8827 305.966 15.328C307.331 14.7733 308.654 14.432 309.934 14.304C310.19 14.2613 310.403 14.3467 310.574 14.56C310.787 14.7307 310.873 14.9867 310.83 15.328ZM322.373 17.504L321.285 18.592C321.626 18.5493 322.138 18.464 322.821 18.336C323.546 18.1653 324.25 18.08 324.933 18.08C325.445 18.1653 325.871 18.336 326.213 18.592C326.554 18.848 326.767 19.3387 326.853 20.064C327.023 21.088 327.279 22.1333 327.621 23.2C328.005 24.224 328.282 25.248 328.453 26.272C328.666 27.296 328.666 28.2773 328.453 29.216C328.239 30.112 327.663 30.9227 326.725 31.648C325.743 33.1413 324.655 34.4 323.461 35.424C322.309 36.4053 321.093 36.9813 319.812 37.152C318.959 37.28 318.021 37.152 316.997 36.768C315.973 36.4267 315.226 35.808 314.757 34.912C314.629 34.9973 314.522 35.0187 314.437 34.976C314.351 34.8907 314.266 34.8053 314.181 34.72C314.095 34.6347 314.01 34.6133 313.924 34.656C313.882 34.6987 313.839 34.6773 313.797 34.592C313.754 34.464 313.733 34.2933 313.733 34.08V33.952V33.824C313.775 32.3307 313.903 30.8373 314.117 29.344C314.373 27.808 314.735 26.336 315.205 24.928C315.717 23.4773 316.357 22.1333 317.125 20.896C317.935 19.616 318.959 18.4853 320.197 17.504C320.623 17.248 321.093 17.1627 321.605 17.248C321.69 17.248 321.797 17.248 321.925 17.248C322.053 17.248 322.202 17.3333 322.373 17.504ZM320.197 21.856C319.941 21.8133 319.791 21.728 319.749 21.6C319.706 21.472 319.706 21.3227 319.749 21.152C319.834 20.9387 319.919 20.704 320.005 20.448C320.133 20.192 320.197 19.936 320.197 19.68C319.301 20.4907 318.597 21.472 318.085 22.624C317.615 23.776 317.274 24.9707 317.061 26.208C316.847 27.4027 316.741 28.576 316.741 29.728C316.783 30.88 316.847 31.8827 316.933 32.736C317.018 33.4613 317.167 34.0587 317.381 34.528C317.594 34.9547 317.914 35.2107 318.341 35.296C318.81 35.424 319.429 35.296 320.197 34.912C321.306 34.3573 322.202 33.5893 322.885 32.608C323.567 31.6267 324.122 30.5813 324.549 29.472C324.719 28.8747 324.847 28.1707 324.933 27.36C325.061 26.5067 325.039 25.7173 324.869 24.992C324.655 24.0107 324.101 23.3067 323.205 22.88C322.351 22.4107 321.349 22.0693 320.197 21.856ZM372.953 10.848C372.867 11.0187 372.867 11.1467 372.953 11.232C373.038 11.3173 373.038 11.4027 372.953 11.488C372.825 11.5733 372.59 11.6373 372.249 11.68C371.95 11.68 371.694 11.7013 371.481 11.744C371.182 11.8293 370.883 11.872 370.585 11.872C370.286 11.8293 369.966 11.7013 369.625 11.488C369.113 11.232 368.473 10.9973 367.705 10.784C366.979 10.528 366.19 10.4 365.337 10.4C364.227 10.4 363.054 10.528 361.817 10.784C360.579 10.9973 359.385 11.3173 358.233 11.744C357.123 12.128 356.121 12.6187 355.225 13.216C354.371 13.8133 353.753 14.4747 353.369 15.2C353.113 15.7547 353.006 16.352 353.049 16.992C353.091 17.5893 353.241 18.1653 353.497 18.72C353.753 19.2747 354.051 19.7867 354.393 20.256C354.777 20.6827 355.139 20.9813 355.481 21.152C356.547 21.7067 357.721 22.0693 359.001 22.24C360.323 22.4107 361.667 22.5173 363.033 22.56C364.441 22.6027 365.827 22.6667 367.193 22.752C368.558 22.8373 369.817 23.0507 370.969 23.392C371.566 23.6053 372.121 23.776 372.633 23.904C373.187 24.032 373.678 24.224 374.105 24.48C374.531 24.6933 374.915 25.0133 375.257 25.44C375.641 25.824 375.961 26.4 376.217 27.168C376.601 28.7893 376.515 30.368 375.961 31.904C375.406 33.4827 374.489 34.8693 373.209 36.064C371.929 37.3013 370.478 38.2827 368.857 39.008C367.577 39.5627 366.254 39.9253 364.889 40.096C363.566 40.3093 362.265 40.288 360.985 40.032C359.747 39.776 358.595 39.2853 357.529 38.56C356.505 37.8347 355.673 36.832 355.033 35.552C354.649 34.7413 354.457 33.76 354.457 32.608C354.414 32.48 354.414 32.352 354.457 32.224C354.542 31.9253 354.819 31.776 355.289 31.776C355.459 31.6907 355.673 31.7547 355.929 31.968C356.227 32.1387 356.441 32.2453 356.569 32.288C356.91 32.3307 357.23 32.5653 357.529 32.992C357.87 33.376 358.19 33.696 358.489 33.952C359.555 35.0613 360.75 35.744 362.073 36C363.438 36.2133 364.739 36.2133 365.977 36C367.257 35.744 368.43 35.36 369.497 34.848C370.563 34.336 371.353 33.8667 371.865 33.44C372.163 33.184 372.483 32.8853 372.825 32.544C373.209 32.16 373.571 31.7547 373.913 31.328C374.254 30.8587 374.531 30.368 374.745 29.856C375.001 29.344 375.129 28.8107 375.129 28.256C375.001 27.744 374.659 27.36 374.105 27.104C373.55 26.8053 372.846 26.5707 371.993 26.4C370.499 26.144 369.027 26.016 367.577 26.016C366.126 25.9733 364.697 25.9733 363.289 26.016C361.881 26.0587 360.494 26.08 359.129 26.08C357.763 26.08 356.441 25.9307 355.161 25.632C354.777 25.5467 354.393 25.4187 354.009 25.248C353.667 25.0347 353.326 24.8213 352.985 24.608C352.643 24.3947 352.387 24.1173 352.217 23.776C352.046 23.4347 351.854 23.072 351.641 22.688C351.427 22.304 351.214 21.92 351.001 21.536C350.83 21.1093 350.702 20.6613 350.617 20.192C350.403 18.8267 350.403 17.4187 350.617 15.968C350.873 14.5173 351.427 13.1733 352.281 11.936C352.963 10.912 353.881 10.0373 355.033 9.312C356.227 8.544 357.55 7.968 359.001 7.584C360.494 7.15733 362.073 6.96533 363.737 7.008C365.401 7.008 367.107 7.264 368.857 7.776C369.07 7.86133 369.326 7.98933 369.625 8.16C369.923 8.288 370.179 8.39467 370.393 8.48C370.99 8.77867 371.523 9.14133 371.993 9.568C372.462 9.99467 372.782 10.4213 372.953 10.848ZM395.015 16.288C395.314 16.5867 395.591 16.928 395.847 17.312C396.103 17.6533 396.316 18.016 396.487 18.4C396.828 19.2107 396.999 20.0213 396.999 20.832C397.042 21.6 396.743 22.5387 396.103 23.648C395.378 24.8427 394.439 25.8453 393.287 26.656C392.178 27.4667 390.962 27.9787 389.639 28.192C388.7 28.3627 387.762 28.3627 386.823 28.192C385.884 27.9787 384.988 27.552 384.135 26.912C383.879 27.1253 383.666 27.4453 383.495 27.872C383.367 28.256 383.324 28.6187 383.367 28.96C383.452 29.5573 383.666 30.2187 384.007 30.944C384.391 31.6267 384.796 32.096 385.223 32.352C385.948 32.6507 386.951 32.672 388.231 32.416C389.554 32.16 390.94 31.776 392.391 31.264C393.884 30.7093 395.335 30.112 396.743 29.472C398.194 28.7893 399.431 28.2133 400.455 27.744C400.455 28 400.391 28.1707 400.263 28.256C400.178 28.3413 400.05 28.4907 399.879 28.704C399.666 28.9173 399.431 29.1733 399.175 29.472C398.919 29.7707 398.62 30.0267 398.279 30.24C397.852 30.496 397.532 30.8373 397.319 31.264C397.106 31.648 396.7 32.0107 396.103 32.352C395.292 32.7787 394.46 33.2267 393.607 33.696C392.796 34.1227 391.986 34.528 391.175 34.912C390.364 35.2533 389.532 35.5307 388.679 35.744C387.868 35.9147 387.058 35.9573 386.247 35.872C385.692 35.7867 385.223 35.6373 384.839 35.424C384.498 35.2107 384.071 34.8907 383.559 34.464C383.303 34.2507 383.004 34.0373 382.663 33.824C382.322 33.6107 382.066 33.3973 381.895 33.184C381.17 32.1173 380.679 30.9867 380.423 29.792C380.167 28.5547 380.103 27.3387 380.231 26.144C380.402 24.9067 380.722 23.712 381.191 22.56C381.66 21.3653 382.279 20.2773 383.047 19.296C383.474 18.7413 383.986 18.1867 384.583 17.632C385.223 17.0347 385.906 16.5227 386.631 16.096C387.399 15.6267 388.188 15.264 388.999 15.008C389.852 14.752 390.706 14.6453 391.559 14.688C391.9 14.7307 392.199 14.8373 392.455 15.008C392.754 15.136 393.074 15.2853 393.415 15.456C393.628 15.5413 393.884 15.6693 394.183 15.84C394.524 15.968 394.802 16.1173 395.015 16.288ZM393.159 20.064C393.074 19.68 392.839 19.3387 392.455 19.04C392.071 18.7413 391.644 18.5067 391.175 18.336C390.706 18.1227 390.236 17.9947 389.767 17.952C389.298 17.9093 388.956 17.9307 388.743 18.016C388.402 18.144 387.996 18.3787 387.527 18.72C387.1 19.0187 386.674 19.3813 386.247 19.808C385.863 20.2347 385.479 20.704 385.095 21.216C384.754 21.6853 384.498 22.1333 384.327 22.56C384.242 22.688 384.156 22.9013 384.071 23.2C384.028 23.456 384.05 23.648 384.135 23.776C384.647 24.416 385.415 24.736 386.439 24.736C387.42 24.736 388.466 24.5013 389.575 24.032C390.727 23.5627 391.538 23.072 392.007 22.56C392.05 22.4747 392.135 22.3253 392.263 22.112C392.434 21.8987 392.583 21.664 392.711 21.408C392.839 21.152 392.946 20.896 393.031 20.64C393.159 20.384 393.202 20.192 393.159 20.064ZM406.604 5.536C407.116 7.84 407.521 10.144 407.82 12.448C408.119 14.752 408.396 17.056 408.652 19.36C408.908 21.664 409.164 23.968 409.42 26.272C409.719 28.576 410.103 30.88 410.572 33.184C410.487 33.7387 410.423 34.1867 410.38 34.528C410.337 34.8693 410.231 35.0827 410.06 35.168C409.847 35.296 409.633 35.4453 409.42 35.616C409.249 35.744 409.057 35.8507 408.844 35.936C408.759 35.9787 408.673 36.0427 408.588 36.128C408.503 36.256 408.396 36.3413 408.268 36.384C408.183 36.4267 408.097 36.4267 408.012 36.384C407.927 36.3413 407.82 36.2133 407.692 36C406.881 33.568 406.135 31.1147 405.452 28.64C404.812 26.1653 404.279 23.6693 403.852 21.152C403.468 18.6347 403.212 16.096 403.084 13.536C402.999 10.9333 403.084 8.26667 403.34 5.536C403.34 4.896 403.532 4.49066 403.916 4.32C404.087 4.23467 404.3 4.29867 404.556 4.512C404.855 4.72533 405.111 4.87467 405.324 4.96C405.623 5.088 405.857 5.17333 406.028 5.216C406.199 5.216 406.391 5.32266 406.604 5.536ZM420.729 5.536C421.241 7.84 421.646 10.144 421.945 12.448C422.244 14.752 422.521 17.056 422.777 19.36C423.033 21.664 423.289 23.968 423.545 26.272C423.844 28.576 424.228 30.88 424.697 33.184C424.612 33.7387 424.548 34.1867 424.505 34.528C424.462 34.8693 424.356 35.0827 424.185 35.168C423.972 35.296 423.758 35.4453 423.545 35.616C423.374 35.744 423.182 35.8507 422.969 35.936C422.884 35.9787 422.798 36.0427 422.713 36.128C422.628 36.256 422.521 36.3413 422.393 36.384C422.308 36.4267 422.222 36.4267 422.137 36.384C422.052 36.3413 421.945 36.2133 421.817 36C421.006 33.568 420.26 31.1147 419.577 28.64C418.937 26.1653 418.404 23.6693 417.977 21.152C417.593 18.6347 417.337 16.096 417.209 13.536C417.124 10.9333 417.209 8.26667 417.465 5.536C417.465 4.896 417.657 4.49066 418.041 4.32C418.212 4.23467 418.425 4.29867 418.681 4.512C418.98 4.72533 419.236 4.87467 419.449 4.96C419.748 5.088 419.982 5.17333 420.153 5.216C420.324 5.216 420.516 5.32266 420.729 5.536ZM445.926 17.12C446.481 18.4853 446.993 19.9573 447.462 21.536C447.974 23.1147 448.315 24.6933 448.486 26.272C448.699 27.808 448.699 29.3013 448.486 30.752C448.315 32.2027 447.825 33.4613 447.014 34.528C446.673 34.9547 446.267 35.1253 445.798 35.04C445.627 34.9973 445.478 34.8907 445.35 34.72C445.222 34.5493 445.051 34.4 444.838 34.272C444.667 34.144 444.475 34.0373 444.262 33.952C444.091 33.8667 443.921 33.696 443.75 33.44C443.11 33.6533 442.47 33.9733 441.83 34.4C441.233 34.784 440.614 35.1893 439.974 35.616C439.334 36.0427 438.673 36.448 437.99 36.832C437.307 37.2587 436.603 37.5573 435.878 37.728C435.11 37.9413 434.534 37.8987 434.15 37.6C433.809 37.344 433.425 37.0453 432.998 36.704C432.699 36.448 432.507 36.2773 432.422 36.192C432.337 36.1493 432.251 35.8933 432.166 35.424C432.038 34.4853 432.017 33.4827 432.102 32.416C432.23 31.3067 432.486 30.1973 432.87 29.088C433.937 25.8453 436.113 23.6693 439.398 22.56C439.782 22.432 440.166 22.4107 440.55 22.496C440.977 22.5387 441.382 22.6453 441.766 22.816C442.15 22.9867 442.513 23.2 442.854 23.456C443.238 23.712 443.579 23.968 443.878 24.224L444.902 25.056C445.115 24.3307 445.094 23.5627 444.838 22.752C444.625 21.8987 444.283 21.1093 443.814 20.384C443.345 19.616 442.811 18.9333 442.214 18.336C441.617 17.7387 441.041 17.3333 440.486 17.12C438.31 17.12 436.347 17.632 434.598 18.656C432.891 19.6373 431.227 20.9387 429.606 22.56C429.521 22.6453 429.414 22.7093 429.286 22.752C429.201 22.7947 429.115 22.8373 429.03 22.88C428.902 22.9653 428.753 22.9867 428.582 22.944C428.454 22.9013 428.433 22.7733 428.518 22.56C428.774 21.1947 429.286 19.9787 430.054 18.912C430.822 17.8027 431.718 16.8427 432.742 16.032C433.766 15.2213 434.854 14.5387 436.006 13.984C437.158 13.4293 438.289 13.024 439.398 12.768C439.569 12.6827 439.718 12.64 439.846 12.64C440.017 12.5973 440.209 12.576 440.422 12.576C440.721 12.576 440.998 12.6613 441.254 12.832C441.51 13.0027 441.809 13.1947 442.15 13.408C442.577 13.6213 443.003 13.8773 443.43 14.176C443.857 14.432 444.241 14.752 444.582 15.136C444.881 15.4773 445.137 15.8187 445.35 16.16C445.563 16.5013 445.755 16.8213 445.926 17.12ZM443.75 28.512C443.494 27.9573 443.089 27.4453 442.534 26.976C442.022 26.5067 441.425 26.1653 440.742 25.952C440.059 25.696 439.313 25.632 438.502 25.76C437.734 25.888 436.945 26.272 436.134 26.912C435.878 27.4667 435.622 28.0853 435.366 28.768C435.11 29.408 434.918 30.0693 434.79 30.752C434.662 31.392 434.598 32.0533 434.598 32.736C434.641 33.376 434.79 33.9733 435.046 34.528C436.667 33.9733 438.246 33.3333 439.782 32.608C441.318 31.8827 442.641 31.2427 443.75 30.688C444.006 30.432 444.155 30.2187 444.198 30.048C444.241 29.8773 444.219 29.728 444.134 29.6C444.091 29.472 444.006 29.3227 443.878 29.152C443.793 28.9813 443.75 28.768 443.75 28.512ZM472.893 15.328C472.893 15.712 472.957 16.2027 473.085 16.8C473.213 17.3547 473.17 17.8027 472.957 18.144C472.871 18.2293 472.829 18.4 472.829 18.656C472.829 18.8693 472.765 19.0187 472.637 19.104L471.805 18.592C471.122 18.2507 470.354 18.1013 469.501 18.144C468.69 18.1867 467.858 18.3787 467.005 18.72C466.407 18.976 465.81 19.3387 465.213 19.808C464.658 20.2347 464.125 20.7253 463.613 21.28C463.101 21.8347 462.631 22.4107 462.205 23.008C461.778 23.6053 461.415 24.1813 461.117 24.736C460.434 25.9733 460.093 27.4667 460.093 29.216C460.135 30.9653 460.775 33.2267 462.013 36C462.013 36.2987 461.799 36.6613 461.373 37.088C461.287 37.1733 461.181 37.3013 461.053 37.472C460.925 37.6427 460.818 37.7707 460.733 37.856C460.391 38.1547 460.178 38.4107 460.093 38.624C460.05 38.8373 459.922 38.9867 459.709 39.072C459.367 39.2 459.047 38.9013 458.749 38.176C458.023 36.896 457.319 35.3387 456.637 33.504C455.997 31.6267 455.378 29.7067 454.781 27.744C454.226 25.7813 453.714 23.904 453.245 22.112C452.818 20.2773 452.477 18.7413 452.221 17.504C452.093 17.1627 452.071 16.8427 452.157 16.544C452.242 16.2027 452.37 15.9253 452.541 15.712C452.669 15.5413 452.818 15.4987 452.989 15.584C453.202 15.6693 453.373 15.712 453.501 15.712C454.055 15.712 454.397 15.8187 454.525 16.032C454.653 16.2453 454.866 16.5227 455.165 16.864C455.762 17.5467 456.231 18.464 456.573 19.616C456.914 20.768 457.341 22.1333 457.853 23.712C458.535 22.56 459.41 21.4507 460.477 20.384C461.586 19.3173 462.781 18.3573 464.061 17.504C465.341 16.608 466.663 15.8827 468.029 15.328C469.394 14.7733 470.717 14.432 471.997 14.304C472.253 14.2613 472.466 14.3467 472.637 14.56C472.85 14.7307 472.935 14.9867 472.893 15.328ZM490.515 16.288C490.814 16.5867 491.091 16.928 491.347 17.312C491.603 17.6533 491.816 18.016 491.987 18.4C492.328 19.2107 492.499 20.0213 492.499 20.832C492.542 21.6 492.243 22.5387 491.603 23.648C490.878 24.8427 489.939 25.8453 488.787 26.656C487.678 27.4667 486.462 27.9787 485.139 28.192C484.2 28.3627 483.262 28.3627 482.323 28.192C481.384 27.9787 480.488 27.552 479.635 26.912C479.379 27.1253 479.166 27.4453 478.995 27.872C478.867 28.256 478.824 28.6187 478.867 28.96C478.952 29.5573 479.166 30.2187 479.507 30.944C479.891 31.6267 480.296 32.096 480.723 32.352C481.448 32.6507 482.451 32.672 483.731 32.416C485.054 32.16 486.44 31.776 487.891 31.264C489.384 30.7093 490.835 30.112 492.243 29.472C493.694 28.7893 494.931 28.2133 495.955 27.744C495.955 28 495.891 28.1707 495.763 28.256C495.678 28.3413 495.55 28.4907 495.379 28.704C495.166 28.9173 494.931 29.1733 494.675 29.472C494.419 29.7707 494.12 30.0267 493.779 30.24C493.352 30.496 493.032 30.8373 492.819 31.264C492.606 31.648 492.2 32.0107 491.603 32.352C490.792 32.7787 489.96 33.2267 489.107 33.696C488.296 34.1227 487.486 34.528 486.675 34.912C485.864 35.2533 485.032 35.5307 484.179 35.744C483.368 35.9147 482.558 35.9573 481.747 35.872C481.192 35.7867 480.723 35.6373 480.339 35.424C479.998 35.2107 479.571 34.8907 479.059 34.464C478.803 34.2507 478.504 34.0373 478.163 33.824C477.822 33.6107 477.566 33.3973 477.395 33.184C476.67 32.1173 476.179 30.9867 475.923 29.792C475.667 28.5547 475.603 27.3387 475.731 26.144C475.902 24.9067 476.222 23.712 476.691 22.56C477.16 21.3653 477.779 20.2773 478.547 19.296C478.974 18.7413 479.486 18.1867 480.083 17.632C480.723 17.0347 481.406 16.5227 482.131 16.096C482.899 15.6267 483.688 15.264 484.499 15.008C485.352 14.752 486.206 14.6453 487.059 14.688C487.4 14.7307 487.699 14.8373 487.955 15.008C488.254 15.136 488.574 15.2853 488.915 15.456C489.128 15.5413 489.384 15.6693 489.683 15.84C490.024 15.968 490.302 16.1173 490.515 16.288ZM488.659 20.064C488.574 19.68 488.339 19.3387 487.955 19.04C487.571 18.7413 487.144 18.5067 486.675 18.336C486.206 18.1227 485.736 17.9947 485.267 17.952C484.798 17.9093 484.456 17.9307 484.243 18.016C483.902 18.144 483.496 18.3787 483.027 18.72C482.6 19.0187 482.174 19.3813 481.747 19.808C481.363 20.2347 480.979 20.704 480.595 21.216C480.254 21.6853 479.998 22.1333 479.827 22.56C479.742 22.688 479.656 22.9013 479.571 23.2C479.528 23.456 479.55 23.648 479.635 23.776C480.147 24.416 480.915 24.736 481.939 24.736C482.92 24.736 483.966 24.5013 485.075 24.032C486.227 23.5627 487.038 23.072 487.507 22.56C487.55 22.4747 487.635 22.3253 487.763 22.112C487.934 21.8987 488.083 21.664 488.211 21.408C488.339 21.152 488.446 20.896 488.531 20.64C488.659 20.384 488.702 20.192 488.659 20.064ZM512.92 18.656C512.707 19.296 512.536 19.7867 512.408 20.128C512.28 20.4693 512.088 20.512 511.832 20.256C511.235 19.6587 510.509 19.0187 509.656 18.336C508.803 17.6533 507.757 17.2267 506.52 17.056C505.709 16.9707 504.835 17.0773 503.896 17.376C503 17.632 502.317 18.208 501.848 19.104C501.421 19.872 501.357 20.7893 501.656 21.856C501.912 22.9653 502.467 23.776 503.32 24.288C504.216 24.7573 505.197 25.1413 506.264 25.44C507.373 25.696 508.483 25.9307 509.592 26.144C510.744 26.3573 511.725 26.7413 512.536 27.296C512.792 27.424 512.984 27.6373 513.112 27.936C513.283 28.192 513.453 28.4267 513.624 28.64C513.837 28.896 514.029 29.1093 514.2 29.28C514.413 29.4507 514.605 29.7067 514.776 30.048C514.904 30.304 515.053 30.624 515.224 31.008C515.395 31.3493 515.437 31.7333 515.352 32.16C515.224 32.7147 514.691 33.312 513.752 33.952C511.704 35.2747 509.549 36.32 507.288 37.088C505.027 37.8987 502.637 38.048 500.12 37.536C499.821 37.4507 499.48 37.152 499.096 36.64C498.712 36.1707 498.392 35.8507 498.136 35.68C497.453 35.296 496.984 34.8053 496.728 34.208C496.387 33.0987 496.216 31.8827 496.216 30.56C496.216 30.1333 496.28 29.9413 496.408 29.984C496.579 29.984 496.728 29.984 496.856 29.984C497.112 29.984 497.389 30.1547 497.688 30.496C498.029 30.8373 498.371 31.2427 498.712 31.712C499.096 32.1387 499.437 32.544 499.736 32.928C500.077 33.2693 500.355 33.44 500.568 33.44C501.293 33.7813 502.168 33.9733 503.192 34.016C504.216 34.0587 505.24 33.9733 506.264 33.76C507.331 33.504 508.312 33.12 509.208 32.608C510.147 32.0533 510.893 31.3707 511.448 30.56C511.448 30.3467 511.192 30.0907 510.68 29.792C510.211 29.4933 509.592 29.1733 508.824 28.832C508.056 28.448 507.203 28.064 506.264 27.68C505.368 27.296 504.493 26.8907 503.64 26.464C502.829 26.0373 502.104 25.5893 501.464 25.12C500.867 24.6507 500.461 24.1813 500.248 23.712C500.12 23.3707 499.971 23.0293 499.8 22.688C499.629 22.304 499.523 22.0267 499.48 21.856C499.267 20.9173 499.224 20.0213 499.352 19.168C499.48 18.272 499.736 17.4827 500.12 16.8C500.504 16.1173 501.016 15.5627 501.656 15.136C502.296 14.6667 503.021 14.368 503.832 14.24C505.112 14.0693 506.477 14.0693 507.928 14.24C509.421 14.368 510.744 14.8587 511.896 15.712C512.237 16.0107 512.472 16.288 512.6 16.544C512.771 16.8 512.899 17.0987 512.984 17.44C513.027 17.6533 513.069 17.8667 513.112 18.08C513.155 18.2507 513.091 18.4427 512.92 18.656Z" fill="white"/>
</svg>
